<?xml version="1.0" encoding="utf-8"?>
<!-- Generator: Adobe Illustrator 23.0.3, SVG Export Plug-In . SVG Version: 6.00 Build 0)  -->
<svg version="1.1"
	 id="svg4156" inkscape:version="0.91 r13725" sodipodi:docname="logo-only.svg" xmlns:cc="http://creativecommons.org/ns#" xmlns:dc="http://purl.org/dc/elements/1.1/" xmlns:inkscape="http://www.inkscape.org/namespaces/inkscape" xmlns:rdf="http://www.w3.org/1999/02/22-rdf-syntax-ns#" xmlns:sodipodi="http://sodipodi.sourceforge.net/DTD/sodipodi-0.dtd" xmlns:svg="http://www.w3.org/2000/svg"
	 xmlns="http://www.w3.org/2000/svg" xmlns:xlink="http://www.w3.org/1999/xlink" x="0px" y="0px" viewBox="0 0 55.6 55.6"
	 style="enable-background:new 0 0 55.6 55.6;" xml:space="preserve">
<style type="text/css">
	.st0{fill:#FFFFFF;}
</style>
<sodipodi:namedview  bordercolor="#666666" borderopacity="1.0" fit-margin-bottom="0" fit-margin-left="0" fit-margin-right="0" fit-margin-top="0" id="base" inkscape:current-layer="layer1" inkscape:cx="23.015143" inkscape:cy="42.280026" inkscape:document-units="px" inkscape:pageopacity="0.0" inkscape:pageshadow="2" inkscape:window-height="1417" inkscape:window-maximized="1" inkscape:window-width="2488" inkscape:window-x="64" inkscape:window-y="-8" inkscape:zoom="5.6" pagecolor="#ffffff" showgrid="false">
	</sodipodi:namedview>
<g>
	<path class="st0" d="M27.8,19.5v19.1c2.2-1.4,6.3-2.5,9.1-2.5c2,0,4,0.3,5.8,0.8V17.8c-1.8-0.6-3.8-0.8-5.8-0.8
		C34.1,17,30,18.1,27.8,19.5z M31,33.5V22l9,5.8L31,33.5z"/>
	<path class="st0" d="M27.8,0C12.4,0,0,12.4,0,27.8s12.4,27.8,27.8,27.8s27.8-12.4,27.8-27.8S43.1,0,27.8,0z M46.1,40.4
		c0,0.4-0.4,0.8-0.8,0.8c-0.2,0-0.3,0-0.4-0.1c-2.3-1.2-5.2-1.7-7.9-1.7c-2.8,0-6.9,1.1-9.1,2.5c-2.4-1.8-5.9-2.5-9.1-2.5
		c-2.4,0-5.7,0.8-7.9,1.8c-0.2,0-0.3,0.1-0.4,0.1c-0.4,0-0.8-0.4-0.8-0.8V16.2c2.4-1.8,5.9-2.5,9.1-2.5c3.2,0,6.7,0.7,9.1,2.5
		c2.4-1.8,5.9-2.5,9.1-2.5c1.9,0,4,0.3,5.8,0.8c1.2,0.4,2.3,0.9,3.3,1.6V40.4z"/>
</g>
</svg>
