<?xml version="1.0" encoding="utf-8"?>
<!-- Generator: Adobe Illustrator 23.0.3, SVG Export Plug-In . SVG Version: 6.00 Build 0)  -->
<svg version="1.1" xmlns="http://www.w3.org/2000/svg" xmlns:xlink="http://www.w3.org/1999/xlink" x="0px" y="0px"
	 viewBox="0 0 270.8 36.05" style="enable-background:new 0 0 270.8 36.05;" xml:space="preserve">
<style type="text/css">
	.st0{fill:#E20613;}
	.st1{fill:none;}
	.st2{font-family:'Arial-BoldMT';}
	.st3{font-size:11px;}
	.st4{display:none;}
	.st5{display:inline;fill:#1E1E1E;}
	.st6{font-family:'ArialMT';}
	.st7{font-size:12px;}
</style>
<g id="Calque_1">
	<polygon class="st0" points="9.69,25.01 3.91,25.01 3.91,20.05 9.69,20.05 9.69,20.05 9.69,14.26 14.65,14.26 14.65,20.05 
		14.65,20.05 20.43,20.05 20.43,25.01 14.65,25.01 14.65,25 14.65,30.79 9.69,30.79 9.69,25 	"/>
	<path class="st0" d="M28.1,22.44c0-3.85,3.12-6.97,6.97-6.97c0.86,0,1.68,0.16,2.44,0.44c-1.43-1.13-3.23-1.8-5.19-1.8
		c-4.62,0-8.37,3.75-8.37,8.37c0,4.62,3.75,8.37,8.37,8.37c2.03,0,3.88-0.72,5.33-1.92c-0.8,0.32-1.67,0.49-2.58,0.49
		C31.22,29.41,28.1,26.29,28.1,22.44"/>
	<g>
		<path class="st0" d="M41.45,33.8H0V11.24h41.45V33.8z M0.72,33.08h40V11.96h-40V33.08z"/>
	</g>
	<rect y="0.05" class="st1" width="91" height="8.56"/>
	<text transform="matrix(1 0 0 1 1.678467e-04 7.9233)" class="st2 st3">Una iniciativa de</text>
</g>
<g id="English_IFRC" class="st4">
	<rect x="47.63" y="13.68" class="st5" width="1.13" height="8.37"/>
	<path class="st5" d="M55.77,22.05h-1.02v-3.75c0-1.06-0.3-1.6-1.31-1.6c-0.58,0-1.61,0.37-1.61,2.03v3.32H50.8v-6.1h0.97v0.86h0.02
		c0.22-0.33,0.79-1.04,1.84-1.04c0.94,0,2.13,0.38,2.13,2.12V22.05z"/>
	<path class="st5" d="M58.78,16.8v3.96c0,0.48,0.41,0.48,0.62,0.48h0.36v0.8c-0.37,0.04-0.66,0.08-0.77,0.08
		c-1.01,0-1.24-0.57-1.24-1.31V16.8h-0.83v-0.85h0.83v-1.7h1.03v1.7h0.98v0.85H58.78z"/>
	<path class="st5" d="M65.15,20.14c-0.03,0.45-0.61,1.2-1.57,1.2c-1.18,0-1.77-0.73-1.77-2.01h4.45c0-2.16-0.86-3.56-2.62-3.56
		c-2.02,0-2.93,1.5-2.93,3.39c0,1.76,1.01,3.05,2.73,3.05c0.98,0,1.38-0.23,1.66-0.42c0.77-0.51,1.05-1.38,1.08-1.67H65.15z
		 M61.8,18.51c0-0.94,0.75-1.82,1.69-1.82c1.25,0,1.64,0.87,1.7,1.82H61.8z"/>
	<path class="st5" d="M68.88,22.05h-1.03v-6.1h0.97v1.01h0.02c0.41-0.71,0.94-1.19,1.71-1.19c0.13,0,0.19,0.01,0.27,0.04v1.06h-0.39
		c-0.96,0-1.56,0.75-1.56,1.63V22.05z"/>
	<path class="st5" d="M77.09,22.05h-1.03v-3.75c0-1.06-0.3-1.6-1.31-1.6c-0.58,0-1.61,0.37-1.61,2.03v3.32h-1.03v-6.1h0.97v0.86
		h0.02c0.22-0.33,0.79-1.04,1.84-1.04c0.94,0,2.13,0.38,2.13,2.12V22.05z"/>
	<path class="st5" d="M79.74,17.8c0.07-0.47,0.23-1.18,1.4-1.18c0.97,0,1.43,0.35,1.43,0.99c0,0.61-0.29,0.7-0.54,0.72l-1.69,0.21
		c-1.7,0.21-1.85,1.4-1.85,1.91c0,1.05,0.79,1.76,1.91,1.76c1.19,0,1.81-0.56,2.2-0.99c0.03,0.47,0.17,0.93,1.08,0.93
		c0.23,0,0.39-0.07,0.56-0.12V21.3c-0.12,0.02-0.25,0.05-0.34,0.05c-0.21,0-0.34-0.1-0.34-0.36v-3.51c0-1.56-1.77-1.7-2.26-1.7
		c-1.5,0-2.47,0.57-2.52,2.03H79.74z M82.55,19.94c0,0.82-0.93,1.43-1.89,1.43c-0.77,0-1.11-0.4-1.11-1.06
		c0-0.77,0.8-0.92,1.31-0.99c1.27-0.16,1.53-0.26,1.69-0.38V19.94z"/>
	<path class="st5" d="M86.81,16.8v3.96c0,0.48,0.41,0.48,0.62,0.48h0.36v0.8c-0.37,0.04-0.67,0.08-0.77,0.08
		c-1.01,0-1.24-0.57-1.24-1.31V16.8h-0.83v-0.85h0.83v-1.7h1.03v1.7h0.98v0.85H86.81z"/>
	<path class="st5" d="M89.05,13.68h1.03v1.17h-1.03V13.68z M90.07,22.05h-1.03v-6.1h1.03V22.05z"/>
	<path class="st5" d="M91.5,18.99c0,1.57,0.89,3.22,2.83,3.22c1.95,0,2.83-1.64,2.83-3.22c0-1.57-0.89-3.22-2.83-3.22
		C92.38,15.77,91.5,17.42,91.5,18.99 M92.56,18.99c0-0.82,0.3-2.33,1.77-2.33s1.77,1.52,1.77,2.33c0,0.82-0.3,2.33-1.77,2.33
		S92.56,19.81,92.56,18.99"/>
	<path class="st5" d="M103.53,22.05h-1.03v-3.75c0-1.06-0.3-1.6-1.31-1.6c-0.58,0-1.61,0.37-1.61,2.03v3.32h-1.03v-6.1h0.97v0.86
		h0.02c0.22-0.33,0.79-1.04,1.84-1.04c0.94,0,2.13,0.38,2.13,2.12V22.05z"/>
	<path class="st5" d="M106.19,17.8c0.07-0.47,0.23-1.18,1.4-1.18c0.97,0,1.43,0.35,1.43,0.99c0,0.61-0.29,0.7-0.54,0.72l-1.69,0.21
		c-1.7,0.21-1.85,1.4-1.85,1.91c0,1.05,0.79,1.76,1.91,1.76c1.19,0,1.81-0.56,2.2-0.99c0.04,0.47,0.18,0.93,1.08,0.93
		c0.23,0,0.39-0.07,0.56-0.12V21.3c-0.12,0.02-0.25,0.05-0.34,0.05c-0.21,0-0.34-0.1-0.34-0.36v-3.51c0-1.56-1.77-1.7-2.26-1.7
		c-1.5,0-2.47,0.57-2.52,2.03H106.19z M109,19.94c0,0.82-0.93,1.43-1.89,1.43c-0.77,0-1.11-0.4-1.11-1.06
		c0-0.77,0.81-0.92,1.31-0.99c1.27-0.16,1.53-0.26,1.69-0.38V19.94z"/>
	<rect x="112.02" y="13.68" class="st5" width="1.03" height="8.37"/>
	<polygon class="st5" points="119.67,22.05 118.54,22.05 118.54,13.68 124.33,13.68 124.33,14.68 119.67,14.68 119.67,17.24 
		123.77,17.24 123.77,18.25 119.67,18.25 	"/>
	<path class="st5" d="M129.45,20.14c-0.04,0.45-0.61,1.2-1.57,1.2c-1.18,0-1.77-0.73-1.77-2.01h4.45c0-2.16-0.86-3.56-2.62-3.56
		c-2.02,0-2.93,1.5-2.93,3.39c0,1.76,1.01,3.05,2.73,3.05c0.98,0,1.38-0.23,1.66-0.42c0.77-0.51,1.05-1.38,1.09-1.67H129.45z
		 M126.1,18.51c0-0.94,0.75-1.82,1.69-1.82c1.25,0,1.64,0.87,1.7,1.82H126.1z"/>
	<path class="st5" d="M137.07,13.68h-1.03v3.14h-0.02c-0.25-0.35-0.71-1.04-1.82-1.04c-1.62,0-2.54,1.33-2.54,3.04
		c0,1.46,0.61,3.4,2.68,3.4c0.6,0,1.29-0.19,1.74-1.01h0.02v0.84h0.97V13.68z M132.73,18.98c0-0.78,0.08-2.29,1.67-2.29
		c1.48,0,1.64,1.6,1.64,2.59c0,1.62-1.01,2.05-1.67,2.05C133.25,21.34,132.73,20.32,132.73,18.98"/>
	<path class="st5" d="M142.88,20.14c-0.04,0.45-0.61,1.2-1.57,1.2c-1.18,0-1.77-0.73-1.77-2.01h4.45c0-2.16-0.86-3.56-2.62-3.56
		c-2.02,0-2.93,1.5-2.93,3.39c0,1.76,1.01,3.05,2.73,3.05c0.98,0,1.38-0.23,1.65-0.42c0.77-0.51,1.05-1.38,1.08-1.67H142.88z
		 M139.53,18.51c0-0.94,0.75-1.82,1.69-1.82c1.25,0,1.64,0.87,1.7,1.82H139.53z"/>
	<path class="st5" d="M146.61,22.05h-1.03v-6.1h0.97v1.01h0.02c0.41-0.71,0.94-1.19,1.71-1.19c0.13,0,0.19,0.01,0.27,0.04v1.06
		h-0.39c-0.96,0-1.56,0.75-1.56,1.63V22.05z"/>
	<path class="st5" d="M150.35,17.8c0.07-0.47,0.23-1.18,1.4-1.18c0.97,0,1.43,0.35,1.43,0.99c0,0.61-0.29,0.7-0.54,0.72l-1.69,0.21
		c-1.7,0.21-1.85,1.4-1.85,1.91c0,1.05,0.79,1.76,1.91,1.76c1.19,0,1.81-0.56,2.2-0.99c0.03,0.47,0.17,0.93,1.08,0.93
		c0.23,0,0.38-0.07,0.56-0.12V21.3c-0.12,0.02-0.24,0.05-0.34,0.05c-0.21,0-0.34-0.1-0.34-0.36v-3.51c0-1.56-1.77-1.7-2.26-1.7
		c-1.5,0-2.47,0.57-2.52,2.03H150.35z M153.16,19.94c0,0.82-0.93,1.43-1.89,1.43c-0.77,0-1.11-0.4-1.11-1.06
		c0-0.77,0.8-0.92,1.31-0.99c1.27-0.16,1.53-0.26,1.69-0.38V19.94z"/>
	<path class="st5" d="M157.42,16.8v3.96c0,0.48,0.41,0.48,0.62,0.48h0.36v0.8c-0.37,0.04-0.66,0.08-0.77,0.08
		c-1.01,0-1.24-0.57-1.24-1.31V16.8h-0.83v-0.85h0.83v-1.7h1.03v1.7h0.98v0.85H157.42z"/>
	<path class="st5" d="M159.66,13.68h1.03v1.17h-1.03V13.68z M160.69,22.05h-1.03v-6.1h1.03V22.05z"/>
	<path class="st5" d="M162.11,18.99c0,1.57,0.89,3.22,2.83,3.22c1.95,0,2.83-1.64,2.83-3.22c0-1.57-0.89-3.22-2.83-3.22
		C162.99,15.77,162.11,17.42,162.11,18.99 M163.17,18.99c0-0.82,0.3-2.33,1.77-2.33s1.77,1.52,1.77,2.33c0,0.82-0.3,2.33-1.77,2.33
		S163.17,19.81,163.17,18.99"/>
	<path class="st5" d="M174.14,22.05h-1.03v-3.75c0-1.06-0.3-1.6-1.31-1.6c-0.58,0-1.61,0.37-1.61,2.03v3.32h-1.03v-6.1h0.97v0.86
		h0.02c0.22-0.33,0.79-1.04,1.84-1.04c0.94,0,2.13,0.38,2.13,2.12V22.05z"/>
	<path class="st5" d="M46.98,32.73c0,1.57,0.89,3.22,2.83,3.22c1.95,0,2.83-1.65,2.83-3.22c0-1.57-0.89-3.22-2.83-3.22
		C47.87,29.51,46.98,31.15,46.98,32.73 M48.04,32.73c0-0.82,0.3-2.33,1.77-2.33c1.47,0,1.77,1.51,1.77,2.33
		c0,0.82-0.3,2.33-1.77,2.33C48.34,35.06,48.04,33.54,48.04,32.73"/>
	<path class="st5" d="M55.32,30.54v5.25h-1.03v-5.25h-0.84v-0.85h0.84v-1.05c0-0.92,0.58-1.34,1.59-1.34c0.15,0,0.3,0.01,0.47,0.02
		v0.92c-0.13-0.01-0.29-0.02-0.42-0.02c-0.44,0-0.61,0.22-0.61,0.71v0.76h1.03v0.85H55.32z"/>
	<path class="st5" d="M62.39,32.19h2.74c1.35,0,1.49,0.8,1.49,1.49c0,0.31,0.03,1.58,0.2,2.1h1.39V35.6
		c-0.35-0.2-0.41-0.37-0.42-0.84l-0.07-1.52c-0.05-1.16-0.53-1.37-1-1.57c0.54-0.31,1.17-0.77,1.17-2.01c0-1.77-1.38-2.25-2.75-2.25
		h-3.87v8.37h1.13V32.19z M62.39,28.38h2.82c0.56,0,1.5,0.1,1.5,1.4c0,1.23-0.88,1.44-1.7,1.44h-2.62V28.38z"/>
	<path class="st5" d="M73.8,33.87c-0.03,0.46-0.61,1.2-1.57,1.2c-1.18,0-1.77-0.73-1.77-2.01h4.45c0-2.16-0.86-3.55-2.62-3.55
		c-2.02,0-2.93,1.5-2.93,3.39c0,1.76,1.01,3.06,2.73,3.06c0.98,0,1.38-0.23,1.66-0.42c0.77-0.51,1.05-1.38,1.08-1.67H73.8z
		 M70.45,32.25c0-0.94,0.75-1.82,1.69-1.82c1.25,0,1.64,0.87,1.7,1.82H70.45z"/>
	<path class="st5" d="M81.42,27.41H80.4v3.14h-0.02c-0.25-0.35-0.71-1.04-1.82-1.04c-1.62,0-2.54,1.33-2.54,3.04
		c0,1.46,0.61,3.4,2.68,3.4c0.6,0,1.29-0.19,1.74-1.01h0.02v0.84h0.97V27.41z M77.07,32.72c0-0.78,0.08-2.29,1.67-2.29
		c1.48,0,1.64,1.6,1.64,2.59c0,1.62-1.01,2.05-1.67,2.05C77.6,35.07,77.07,34.06,77.07,32.72"/>
	<path class="st5" d="M92.56,29.93c-0.31-1.47-1.54-1.74-2.34-1.74c-1.52,0-2.74,1.12-2.74,3.32c0,1.97,0.7,3.49,2.77,3.49
		c0.74,0,2.01-0.35,2.39-2.3h1.1c-0.47,3.16-3.03,3.3-3.66,3.3c-1.9,0-3.77-1.24-3.77-4.45c0-2.58,1.47-4.36,3.91-4.36
		c2.16,0,3.28,1.34,3.44,2.74H92.56z"/>
	<path class="st5" d="M96.37,35.78h-1.03v-6.1h0.97v1.01h0.02c0.41-0.71,0.95-1.19,1.71-1.19c0.13,0,0.19,0.01,0.27,0.04v1.06h-0.39
		c-0.96,0-1.56,0.75-1.56,1.63V35.78z"/>
	<path class="st5" d="M98.97,32.73c0,1.57,0.89,3.22,2.83,3.22c1.95,0,2.83-1.65,2.83-3.22c0-1.57-0.89-3.22-2.83-3.22
		C99.86,29.51,98.97,31.15,98.97,32.73 M100.03,32.73c0-0.82,0.3-2.33,1.77-2.33s1.77,1.51,1.77,2.33c0,0.82-0.3,2.33-1.77,2.33
		S100.03,33.54,100.03,32.73"/>
	<path class="st5" d="M109.5,31.42c-0.01-0.39-0.15-1.03-1.45-1.03c-0.32,0-1.21,0.1-1.21,0.86c0,0.5,0.31,0.62,1.11,0.82l1.03,0.26
		c1.27,0.31,1.71,0.78,1.71,1.61c0,1.26-1.04,2.02-2.41,2.02c-2.41,0-2.59-1.4-2.62-2.13h0.99c0.03,0.48,0.17,1.25,1.62,1.25
		c0.73,0,1.4-0.29,1.4-0.97c0-0.49-0.34-0.65-1.21-0.87l-1.19-0.29c-0.85-0.21-1.41-0.64-1.41-1.48c0-1.34,1.11-1.95,2.31-1.95
		c2.18,0,2.33,1.61,2.33,1.91H109.5z"/>
	<path class="st5" d="M115.56,31.42c-0.01-0.39-0.15-1.03-1.45-1.03c-0.32,0-1.21,0.1-1.21,0.86c0,0.5,0.31,0.62,1.11,0.82
		l1.03,0.26c1.27,0.31,1.71,0.78,1.71,1.61c0,1.26-1.04,2.02-2.41,2.02c-2.41,0-2.59-1.4-2.62-2.13h0.99
		c0.04,0.48,0.18,1.25,1.62,1.25c0.73,0,1.4-0.29,1.4-0.97c0-0.49-0.34-0.65-1.21-0.87l-1.19-0.29c-0.85-0.21-1.41-0.64-1.41-1.48
		c0-1.34,1.11-1.95,2.31-1.95c2.18,0,2.33,1.61,2.33,1.91H115.56z"/>
	<path class="st5" d="M122.55,31.54c0.07-0.47,0.23-1.18,1.4-1.18c0.97,0,1.43,0.35,1.43,0.99c0,0.61-0.29,0.7-0.54,0.72l-1.69,0.21
		c-1.7,0.21-1.85,1.4-1.85,1.91c0,1.05,0.79,1.76,1.91,1.76c1.19,0,1.81-0.56,2.2-0.99c0.04,0.47,0.18,0.93,1.08,0.93
		c0.23,0,0.38-0.07,0.56-0.12v-0.75c-0.12,0.02-0.24,0.05-0.34,0.05c-0.21,0-0.34-0.1-0.34-0.36v-3.51c0-1.56-1.77-1.7-2.26-1.7
		c-1.5,0-2.47,0.57-2.52,2.03H122.55z M125.36,33.67c0,0.82-0.93,1.43-1.89,1.43c-0.77,0-1.11-0.4-1.11-1.06
		c0-0.77,0.8-0.92,1.31-0.99c1.27-0.16,1.53-0.26,1.69-0.39V33.67z"/>
	<path class="st5" d="M133.32,35.78h-1.03v-3.75c0-1.06-0.3-1.6-1.31-1.6c-0.58,0-1.61,0.37-1.61,2.03v3.32h-1.03v-6.1h0.97v0.86
		h0.02c0.22-0.33,0.79-1.04,1.84-1.04c0.94,0,2.13,0.38,2.13,2.12V35.78z"/>
	<path class="st5" d="M140.13,27.41h-1.03v3.14h-0.02c-0.24-0.35-0.71-1.04-1.82-1.04c-1.62,0-2.54,1.33-2.54,3.04
		c0,1.46,0.61,3.4,2.68,3.4c0.59,0,1.29-0.19,1.74-1.01h0.02v0.84h0.97V27.41z M135.78,32.72c0-0.78,0.08-2.29,1.67-2.29
		c1.48,0,1.64,1.6,1.64,2.59c0,1.62-1.01,2.05-1.67,2.05C136.3,35.07,135.78,34.06,135.78,32.72"/>
	<path class="st5" d="M146.66,32.19h2.74c1.35,0,1.49,0.8,1.49,1.49c0,0.31,0.04,1.58,0.2,2.1h1.39V35.6
		c-0.35-0.2-0.41-0.37-0.42-0.84l-0.07-1.52c-0.05-1.16-0.52-1.37-1-1.57c0.54-0.31,1.17-0.77,1.17-2.01c0-1.77-1.38-2.25-2.75-2.25
		h-3.87v8.37h1.13V32.19z M146.66,28.38h2.82c0.56,0,1.5,0.1,1.5,1.4c0,1.23-0.87,1.44-1.7,1.44h-2.62V28.38z"/>
	<path class="st5" d="M158.06,33.87c-0.04,0.46-0.61,1.2-1.57,1.2c-1.18,0-1.77-0.73-1.77-2.01h4.45c0-2.16-0.86-3.55-2.62-3.55
		c-2.02,0-2.93,1.5-2.93,3.39c0,1.76,1.01,3.06,2.73,3.06c0.98,0,1.38-0.23,1.66-0.42c0.77-0.51,1.05-1.38,1.08-1.67H158.06z
		 M154.72,32.25c0-0.94,0.75-1.82,1.69-1.82c1.25,0,1.65,0.87,1.7,1.82H154.72z"/>
	<path class="st5" d="M165.69,27.41h-1.03v3.14h-0.02c-0.24-0.35-0.71-1.04-1.82-1.04c-1.62,0-2.54,1.33-2.54,3.04
		c0,1.46,0.61,3.4,2.68,3.4c0.59,0,1.29-0.19,1.74-1.01h0.02v0.84h0.97V27.41z M161.34,32.72c0-0.78,0.08-2.29,1.67-2.29
		c1.48,0,1.64,1.6,1.64,2.59c0,1.62-1.01,2.05-1.67,2.05C161.86,35.07,161.34,34.06,161.34,32.72"/>
	<path class="st5" d="M176.82,29.93c-0.32-1.47-1.54-1.74-2.34-1.74c-1.52,0-2.74,1.12-2.74,3.32c0,1.97,0.7,3.49,2.77,3.49
		c0.74,0,2.01-0.35,2.39-2.3h1.1c-0.47,3.16-3.03,3.3-3.66,3.3c-1.9,0-3.77-1.24-3.77-4.45c0-2.58,1.47-4.36,3.91-4.36
		c2.16,0,3.28,1.34,3.44,2.74H176.82z"/>
	<path class="st5" d="M180.63,35.78h-1.03v-6.1h0.97v1.01h0.02c0.41-0.71,0.95-1.19,1.71-1.19c0.13,0,0.19,0.01,0.27,0.04v1.06
		h-0.38c-0.96,0-1.56,0.75-1.56,1.63V35.78z"/>
	<path class="st5" d="M187.74,33.87c-0.04,0.46-0.61,1.2-1.57,1.2c-1.18,0-1.77-0.73-1.77-2.01h4.45c0-2.16-0.86-3.55-2.62-3.55
		c-2.02,0-2.93,1.5-2.93,3.39c0,1.76,1.01,3.06,2.73,3.06c0.98,0,1.38-0.23,1.66-0.42c0.77-0.51,1.05-1.38,1.08-1.67H187.74z
		 M184.39,32.25c0-0.94,0.75-1.82,1.69-1.82c1.25,0,1.64,0.87,1.7,1.82H184.39z"/>
	<path class="st5" d="M193.76,31.42c-0.01-0.39-0.15-1.03-1.45-1.03c-0.32,0-1.21,0.1-1.21,0.86c0,0.5,0.31,0.62,1.11,0.82
		l1.03,0.26c1.27,0.31,1.71,0.78,1.71,1.61c0,1.26-1.04,2.02-2.41,2.02c-2.41,0-2.59-1.4-2.62-2.13h0.99
		c0.03,0.48,0.17,1.25,1.62,1.25c0.73,0,1.4-0.29,1.4-0.97c0-0.49-0.34-0.65-1.21-0.87l-1.19-0.29c-0.85-0.21-1.41-0.64-1.41-1.48
		c0-1.34,1.11-1.95,2.31-1.95c2.18,0,2.33,1.61,2.33,1.91H193.76z"/>
	<path class="st5" d="M200.18,31.74c-0.13-0.82-0.58-1.31-1.45-1.31c-1.27,0-1.68,1.21-1.68,2.3c0,1.05,0.26,2.34,1.67,2.34
		c0.69,0,1.28-0.51,1.46-1.45h0.99c-0.1,0.97-0.7,2.33-2.48,2.33c-1.71,0-2.73-1.29-2.73-3.06c0-1.89,0.91-3.39,2.93-3.39
		c1.6,0,2.2,1.17,2.28,2.23H200.18z"/>
	<path class="st5" d="M206.58,33.87c-0.03,0.46-0.61,1.2-1.57,1.2c-1.18,0-1.77-0.73-1.77-2.01h4.45c0-2.16-0.86-3.55-2.62-3.55
		c-2.02,0-2.93,1.5-2.93,3.39c0,1.76,1.01,3.06,2.73,3.06c0.98,0,1.38-0.23,1.66-0.42c0.77-0.51,1.05-1.38,1.08-1.67H206.58z
		 M203.23,32.25c0-0.94,0.75-1.82,1.69-1.82c1.25,0,1.64,0.87,1.7,1.82H203.23z"/>
	<path class="st5" d="M214.11,35.78h-1.03v-3.75c0-1.06-0.3-1.6-1.31-1.6c-0.58,0-1.61,0.37-1.61,2.03v3.32h-1.03v-6.1h0.97v0.86
		h0.02c0.22-0.33,0.79-1.04,1.84-1.04c0.94,0,2.13,0.38,2.13,2.12V35.78z"/>
	<path class="st5" d="M217.12,30.54v3.96c0,0.48,0.41,0.48,0.62,0.48h0.36v0.81c-0.37,0.03-0.66,0.08-0.77,0.08
		c-1.01,0-1.24-0.57-1.24-1.31v-4.02h-0.83v-0.85h0.83v-1.7h1.03v1.7h0.98v0.85H217.12z"/>
	<path class="st5" d="M227.98,29.86c-0.06-1.29-1.13-1.7-2.08-1.7c-0.71,0-1.91,0.2-1.91,1.47c0,0.71,0.5,0.95,0.99,1.06l2.39,0.55
		c1.08,0.26,1.9,0.91,1.9,2.24c0,1.98-1.84,2.53-3.28,2.53c-1.55,0-2.16-0.47-2.53-0.81c-0.71-0.64-0.85-1.34-0.85-2.12h1.06
		c0,1.52,1.24,1.96,2.31,1.96c0.82,0,2.19-0.21,2.19-1.41c0-0.87-0.41-1.15-1.79-1.48l-1.71-0.4c-0.55-0.13-1.78-0.51-1.78-1.97
		c0-1.31,0.85-2.59,2.88-2.59c2.93,0,3.22,1.75,3.26,2.67H227.98z"/>
	<path class="st5" d="M230.47,32.73c0,1.57,0.89,3.22,2.83,3.22c1.95,0,2.83-1.65,2.83-3.22c0-1.57-0.89-3.22-2.83-3.22
		C231.35,29.51,230.47,31.15,230.47,32.73 M231.53,32.73c0-0.82,0.3-2.33,1.77-2.33c1.47,0,1.77,1.51,1.77,2.33
		c0,0.82-0.3,2.33-1.77,2.33C231.83,35.06,231.53,33.54,231.53,32.73"/>
	<path class="st5" d="M241.35,31.74c-0.13-0.82-0.58-1.31-1.45-1.31c-1.27,0-1.68,1.21-1.68,2.3c0,1.05,0.26,2.34,1.67,2.34
		c0.69,0,1.28-0.51,1.46-1.45h0.99c-0.11,0.97-0.7,2.33-2.48,2.33c-1.71,0-2.73-1.29-2.73-3.06c0-1.89,0.91-3.39,2.93-3.39
		c1.6,0,2.2,1.17,2.29,2.23H241.35z"/>
	<path class="st5" d="M243.62,27.41h1.03v1.17h-1.03V27.41z M244.65,35.78h-1.03v-6.1h1.03V35.78z"/>
	<path class="st5" d="M250.57,33.87c-0.04,0.46-0.61,1.2-1.57,1.2c-1.18,0-1.77-0.73-1.77-2.01h4.45c0-2.16-0.86-3.55-2.62-3.55
		c-2.02,0-2.93,1.5-2.93,3.39c0,1.76,1.01,3.06,2.73,3.06c0.98,0,1.38-0.23,1.65-0.42c0.77-0.51,1.05-1.38,1.09-1.67H250.57z
		 M247.22,32.25c0-0.94,0.75-1.82,1.69-1.82c1.25,0,1.64,0.87,1.7,1.82H247.22z"/>
	<path class="st5" d="M254.39,30.54v3.96c0,0.48,0.41,0.48,0.62,0.48h0.36v0.81c-0.37,0.03-0.66,0.08-0.77,0.08
		c-1.01,0-1.24-0.57-1.24-1.31v-4.02h-0.83v-0.85h0.83v-1.7h1.03v1.7h0.98v0.85H254.39z"/>
	<path class="st5" d="M256.63,27.41h1.03v1.17h-1.03V27.41z M257.66,35.78h-1.03v-6.1h1.03V35.78z"/>
	<path class="st5" d="M263.58,33.87c-0.04,0.46-0.61,1.2-1.57,1.2c-1.18,0-1.77-0.73-1.77-2.01h4.45c0-2.16-0.86-3.55-2.62-3.55
		c-2.02,0-2.93,1.5-2.93,3.39c0,1.76,1.02,3.06,2.73,3.06c0.98,0,1.37-0.23,1.65-0.42c0.77-0.51,1.05-1.38,1.09-1.67H263.58z
		 M260.23,32.25c0-0.94,0.75-1.82,1.69-1.82c1.25,0,1.64,0.87,1.7,1.82H260.23z"/>
	<path class="st5" d="M269.61,31.42c-0.01-0.39-0.15-1.03-1.45-1.03c-0.32,0-1.21,0.1-1.21,0.86c0,0.5,0.32,0.62,1.11,0.82
		l1.03,0.26c1.27,0.31,1.71,0.78,1.71,1.61c0,1.26-1.04,2.02-2.41,2.02c-2.41,0-2.59-1.4-2.62-2.13h0.99
		c0.04,0.48,0.18,1.25,1.62,1.25c0.73,0,1.4-0.29,1.4-0.97c0-0.49-0.34-0.65-1.21-0.87l-1.19-0.29c-0.85-0.21-1.41-0.64-1.41-1.48
		c0-1.34,1.11-1.95,2.31-1.95c2.18,0,2.33,1.61,2.33,1.91H269.61z"/>
	<text transform="matrix(1 0 0 1 50.804 -30.0455)" class="st6 st7" style="display:inline;">International Federation </text>
</g>
<g id="Spanish_FIRC">
	<text transform="matrix(1 0 0 1 45.5 19.369)"><tspan x="0" y="0" class="st6 st7">Federación Internacional </tspan><tspan x="0" y="14.4" class="st6 st7">de la Cruz Roja y la Media Luna Roja</tspan></text>
</g>
</svg>
