<?xml version="1.0" encoding="UTF-8" standalone="no"?>
<!-- Created with Inkscape (http://www.inkscape.org/) -->

<svg
   xmlns:dc="http://purl.org/dc/elements/1.1/"
   xmlns:cc="http://creativecommons.org/ns#"
   xmlns:rdf="http://www.w3.org/1999/02/22-rdf-syntax-ns#"
   xmlns:svg="http://www.w3.org/2000/svg"
   xmlns="http://www.w3.org/2000/svg"
   xmlns:sodipodi="http://sodipodi.sourceforge.net/DTD/sodipodi-0.dtd"
   xmlns:inkscape="http://www.inkscape.org/namespaces/inkscape"
   width="100"
   height="100"
   viewBox="0 0 100 100"
   id="svg4156"
   version="1.1"
   inkscape:version="0.91 r13725"
   sodipodi:docname="logo-only-white.svg">
  <defs
     id="defs4158" />
  <sodipodi:namedview
     id="base"
     pagecolor="#ffffff"
     bordercolor="#666666"
     borderopacity="1.0"
     inkscape:pageopacity="0.0"
     inkscape:pageshadow="2"
     inkscape:zoom="5.6"
     inkscape:cx="-18.145571"
     inkscape:cy="42.280026"
     inkscape:document-units="px"
     inkscape:current-layer="layer1"
     showgrid="false"
     fit-margin-top="0"
     fit-margin-left="0"
     fit-margin-right="0"
     fit-margin-bottom="0"
     inkscape:window-width="2488"
     inkscape:window-height="1417"
     inkscape:window-x="64"
     inkscape:window-y="-8"
     inkscape:window-maximized="1"
     units="px" />
  <metadata
     id="metadata4161">
    <rdf:RDF>
      <cc:Work
         rdf:about="">
        <dc:format>image/svg+xml</dc:format>
        <dc:type
           rdf:resource="http://purl.org/dc/dcmitype/StillImage" />
        <dc:title></dc:title>
      </cc:Work>
    </rdf:RDF>
  </metadata>
  <g
     inkscape:label="Layer 1"
     inkscape:groupmode="layer"
     id="layer1"
     transform="translate(-162.4118,-841.379)">
    <path
       id="path4-2-9-7"
       style="fill:#ffffff"
       d="m 220.88904,875.55859 0,30.48135 23.94964,-15.24067 z m 31.37116,-20.11992 c -4.9038,-1.54622 -10.29349,-2.20889 -15.46234,-2.20889 -8.61466,0 -17.89205,1.76712 -24.29785,6.62668 -6.40581,-4.85956 -15.68319,-6.62668 -24.29784,-6.62668 -8.61472,0 -17.89209,1.76712 -24.2979,6.62668 l 0,64.72073 c 0,1.10444 1.10449,2.20888 2.2089,2.20888 0.44176,0 0.66267,-0.22088 1.10442,-0.22088 5.96406,-2.87158 14.57878,-4.85959 20.98458,-4.85959 8.61465,0 17.89203,1.76713 24.29784,6.6267 5.96405,-3.75511 16.78767,-6.6267 24.29785,-6.6267 7.28944,0 14.79967,1.32534 20.98456,4.63869 0.44177,0.2209 0.66267,0.2209 1.10449,0.2209 1.10443,0 2.20885,-1.10444 2.20885,-2.2089 l 0,-64.49983 c -2.65067,-1.98799 -5.52224,-3.31333 -8.83556,-4.41779 m 0,59.64025 c -4.85958,-1.54623 -10.16096,-2.20889 -15.46234,-2.20889 -7.51018,0 -18.3338,2.87157 -24.29785,6.62668 l 0,-50.80464 c 5.96405,-3.75513 16.78767,-6.62669 24.29785,-6.62669 5.30138,0 10.60276,0.66267 15.46234,2.20889 z"
       inkscape:connector-curvature="0" />
  </g>
</svg>
